<svg width="320" height="320" viewBox="0 0 320 320" fill="none" xmlns="http://www.w3.org/2000/svg">
<path d="M165.479 7.74702L199.789 42.0567C201.926 44.1945 201.926 47.6659 199.789 49.8037L161.605 87.9869C159.468 90.1247 155.996 90.1247 153.858 87.9868L115.675 49.8037C113.537 47.6659 113.537 44.1945 115.675 42.0567L149.985 7.74703C154.261 3.47129 161.203 3.47137 165.479 7.74702Z" fill="white"/>
<path d="M257.957 100.224L219.773 62.0411C217.634 59.9018 214.166 59.9018 212.026 62.0411L173.843 100.224C171.704 102.364 171.704 105.832 173.843 107.971L212.026 146.154C214.166 148.294 217.634 148.294 219.773 146.154L257.957 107.971C260.096 105.832 260.096 102.364 257.957 100.224Z" fill="#4BFFB6"/>
<path d="M199.786 158.394L161.603 120.211C159.464 118.072 155.996 118.072 153.856 120.211L115.673 158.394C113.534 160.534 113.534 164.002 115.673 166.141L153.856 204.324C155.995 206.464 159.464 206.464 161.603 204.325L199.786 166.141C201.926 164.002 201.926 160.534 199.786 158.394Z" fill="#4BFFB6"/>
<path d="M277.943 120.211L312.253 154.521C316.529 158.797 316.529 165.739 312.253 170.015L277.943 204.325C275.806 206.462 272.334 206.462 270.196 204.325L232.013 166.141C229.875 164.004 229.875 160.532 232.013 158.394L270.196 120.211C272.334 118.073 275.806 118.073 277.943 120.211V120.211Z" fill="#4BFFB6"/>
<path d="M257.957 216.564L219.773 178.381C217.634 176.242 214.166 176.242 212.026 178.381L173.843 216.564C171.704 218.704 171.704 222.172 173.843 224.311L212.026 262.495C214.166 264.634 217.634 264.634 219.773 262.495L257.957 224.311C260.096 222.172 260.096 218.704 257.957 216.564Z" fill="#4BFFB6"/>
<path d="M91.1958 158.397L141.619 107.974C143.758 105.834 143.758 102.366 141.619 100.227L103.436 62.0434C101.296 59.9041 97.8278 59.9041 95.6885 62.0434L41.392 116.34L3.20893 154.523C-1.06964 158.802 -1.06964 165.738 3.20893 170.017L41.3921 208.2L149.983 316.791C154.261 321.069 161.198 321.069 165.477 316.791L199.786 282.481C201.926 280.342 201.926 276.874 199.786 274.734L91.1958 166.144C89.0565 164.004 89.0565 160.536 91.1958 158.397V158.397Z" fill="white"/>
</svg>
